<mxfile host="app.diagrams.net" agent="Mozilla/5.0 (Windows NT 10.0; Win64; x64) AppleWebKit/537.36 (KHTML, like Gecko) Chrome/131.0.0.0 Safari/537.36" version="25.0.3">
  <diagram name="Page-1" id="UyCUt9YOfNeegB13CZS8">
    <mxGraphModel dx="840" dy="452" grid="1" gridSize="10" guides="1" tooltips="1" connect="1" arrows="1" fold="1" page="1" pageScale="1" pageWidth="850" pageHeight="1100" math="0" shadow="0">
      <root>
        <mxCell id="0" />
        <mxCell id="1" parent="0" />
        <mxCell id="HtUldh4A4xEhkK6D9P3v-1" value="API Gateway" style="rounded=1;whiteSpace=wrap;html=1;fillColor=#60a917;fontColor=#ffffff;strokeColor=#2D7600;" parent="1" vertex="1">
          <mxGeometry x="200" y="160" width="120" height="60" as="geometry" />
        </mxCell>
        <mxCell id="Ot03RypuyBV58xais_hw-1" value="&lt;h6&gt;PostgreSQL&lt;/h6&gt;" style="shape=datastore;whiteSpace=wrap;html=1;fillColor=#0050ef;fontColor=#ffffff;strokeColor=#001DBC;" parent="1" vertex="1">
          <mxGeometry x="750" y="85" width="80" height="70" as="geometry" />
        </mxCell>
        <mxCell id="Ot03RypuyBV58xais_hw-2" value="&lt;h6&gt;H2&lt;/h6&gt;" style="shape=datastore;whiteSpace=wrap;html=1;fillColor=#0050ef;fontColor=#ffffff;strokeColor=#001DBC;" parent="1" vertex="1">
          <mxGeometry x="750" y="225" width="80" height="70" as="geometry" />
        </mxCell>
        <mxCell id="uGvqFp98ZI5xQv3e657r-1" value="" style="endArrow=classic;startArrow=classic;html=1;rounded=0;entryX=0.5;entryY=1;entryDx=0;entryDy=0;exitX=0;exitY=0.5;exitDx=0;exitDy=0;" edge="1" parent="1" target="HtUldh4A4xEhkK6D9P3v-1">
          <mxGeometry width="50" height="50" relative="1" as="geometry">
            <mxPoint x="380" y="350" as="sourcePoint" />
            <mxPoint x="380" y="240" as="targetPoint" />
            <Array as="points">
              <mxPoint x="260" y="350" />
            </Array>
          </mxGeometry>
        </mxCell>
        <mxCell id="uGvqFp98ZI5xQv3e657r-2" value="" style="endArrow=classic;html=1;rounded=0;exitX=1;exitY=0.5;exitDx=0;exitDy=0;entryX=0.5;entryY=1;entryDx=0;entryDy=0;" edge="1" parent="1" source="uGvqFp98ZI5xQv3e657r-11" target="uGvqFp98ZI5xQv3e657r-10">
          <mxGeometry width="50" height="50" relative="1" as="geometry">
            <mxPoint x="500" y="350" as="sourcePoint" />
            <mxPoint x="620" y="300" as="targetPoint" />
            <Array as="points">
              <mxPoint x="620" y="350" />
            </Array>
          </mxGeometry>
        </mxCell>
        <mxCell id="uGvqFp98ZI5xQv3e657r-4" value="" style="endArrow=classic;html=1;rounded=0;entryX=0.5;entryY=1;entryDx=0;entryDy=0;exitX=0.5;exitY=0;exitDx=0;exitDy=0;" edge="1" parent="1" source="uGvqFp98ZI5xQv3e657r-10" target="uGvqFp98ZI5xQv3e657r-9">
          <mxGeometry width="50" height="50" relative="1" as="geometry">
            <mxPoint x="620" y="220" as="sourcePoint" />
            <mxPoint x="620" y="160" as="targetPoint" />
          </mxGeometry>
        </mxCell>
        <mxCell id="uGvqFp98ZI5xQv3e657r-5" value="&lt;h6&gt;H2&lt;/h6&gt;" style="shape=datastore;whiteSpace=wrap;html=1;fillColor=#0050ef;fontColor=#ffffff;strokeColor=#001DBC;" vertex="1" parent="1">
          <mxGeometry x="400" y="430" width="80" height="70" as="geometry" />
        </mxCell>
        <mxCell id="uGvqFp98ZI5xQv3e657r-9" value="Gym Statistics" style="rounded=1;whiteSpace=wrap;html=1;fillColor=#a0522d;fontColor=#ffffff;strokeColor=#6D1F00;" vertex="1" parent="1">
          <mxGeometry x="560" y="90" width="120" height="60" as="geometry" />
        </mxCell>
        <mxCell id="uGvqFp98ZI5xQv3e657r-10" value="Gym Main" style="rounded=1;whiteSpace=wrap;html=1;fillColor=#a0522d;fontColor=#ffffff;strokeColor=#6D1F00;" vertex="1" parent="1">
          <mxGeometry x="560" y="230" width="120" height="60" as="geometry" />
        </mxCell>
        <mxCell id="uGvqFp98ZI5xQv3e657r-11" value="Authentication" style="rounded=1;whiteSpace=wrap;html=1;fillColor=#a0522d;fontColor=#ffffff;strokeColor=#6D1F00;" vertex="1" parent="1">
          <mxGeometry x="380" y="320" width="120" height="60" as="geometry" />
        </mxCell>
        <mxCell id="uGvqFp98ZI5xQv3e657r-13" value="Eureka Server" style="shape=hexagon;perimeter=hexagonPerimeter2;whiteSpace=wrap;html=1;fixedSize=1;fillColor=#6a00ff;fontColor=#ffffff;strokeColor=#3700CC;" vertex="1" parent="1">
          <mxGeometry x="380" y="150" width="120" height="80" as="geometry" />
        </mxCell>
        <mxCell id="uGvqFp98ZI5xQv3e657r-16" value="" style="endArrow=classic;startArrow=classic;html=1;rounded=0;exitX=0.5;exitY=1;exitDx=0;exitDy=0;" edge="1" parent="1" source="uGvqFp98ZI5xQv3e657r-11" target="uGvqFp98ZI5xQv3e657r-5">
          <mxGeometry width="50" height="50" relative="1" as="geometry">
            <mxPoint x="430" y="310" as="sourcePoint" />
            <mxPoint x="480" y="260" as="targetPoint" />
          </mxGeometry>
        </mxCell>
        <mxCell id="uGvqFp98ZI5xQv3e657r-17" value="" style="endArrow=classic;startArrow=classic;html=1;rounded=0;exitX=0;exitY=0.5;exitDx=0;exitDy=0;entryX=1;entryY=0.5;entryDx=0;entryDy=0;" edge="1" parent="1" source="Ot03RypuyBV58xais_hw-2" target="uGvqFp98ZI5xQv3e657r-10">
          <mxGeometry width="50" height="50" relative="1" as="geometry">
            <mxPoint x="450" y="390" as="sourcePoint" />
            <mxPoint x="450" y="440" as="targetPoint" />
          </mxGeometry>
        </mxCell>
        <mxCell id="uGvqFp98ZI5xQv3e657r-18" value="" style="endArrow=classic;startArrow=classic;html=1;rounded=0;exitX=0;exitY=0.5;exitDx=0;exitDy=0;entryX=1;entryY=0.5;entryDx=0;entryDy=0;" edge="1" parent="1" source="Ot03RypuyBV58xais_hw-1" target="uGvqFp98ZI5xQv3e657r-9">
          <mxGeometry width="50" height="50" relative="1" as="geometry">
            <mxPoint x="760" y="270" as="sourcePoint" />
            <mxPoint x="690" y="270" as="targetPoint" />
          </mxGeometry>
        </mxCell>
        <mxCell id="uGvqFp98ZI5xQv3e657r-21" value="" style="endArrow=none;dashed=1;html=1;dashPattern=1 3;strokeWidth=2;rounded=0;entryX=0;entryY=0.25;entryDx=0;entryDy=0;exitX=0.841;exitY=1.015;exitDx=0;exitDy=0;exitPerimeter=0;" edge="1" parent="1" source="uGvqFp98ZI5xQv3e657r-13" target="uGvqFp98ZI5xQv3e657r-10">
          <mxGeometry width="50" height="50" relative="1" as="geometry">
            <mxPoint x="430" y="310" as="sourcePoint" />
            <mxPoint x="480" y="260" as="targetPoint" />
          </mxGeometry>
        </mxCell>
        <mxCell id="uGvqFp98ZI5xQv3e657r-22" value="" style="endArrow=none;dashed=1;html=1;dashPattern=1 3;strokeWidth=2;rounded=0;entryX=0.5;entryY=1;entryDx=0;entryDy=0;exitX=0.5;exitY=0;exitDx=0;exitDy=0;" edge="1" parent="1" source="uGvqFp98ZI5xQv3e657r-11" target="uGvqFp98ZI5xQv3e657r-13">
          <mxGeometry width="50" height="50" relative="1" as="geometry">
            <mxPoint x="440" y="310" as="sourcePoint" />
            <mxPoint x="480" y="260" as="targetPoint" />
          </mxGeometry>
        </mxCell>
        <mxCell id="uGvqFp98ZI5xQv3e657r-23" value="" style="endArrow=none;dashed=1;html=1;dashPattern=1 3;strokeWidth=2;rounded=0;entryX=0;entryY=0.75;entryDx=0;entryDy=0;exitX=0.815;exitY=0.023;exitDx=0;exitDy=0;exitPerimeter=0;" edge="1" parent="1" source="uGvqFp98ZI5xQv3e657r-13" target="uGvqFp98ZI5xQv3e657r-9">
          <mxGeometry width="50" height="50" relative="1" as="geometry">
            <mxPoint x="430" y="310" as="sourcePoint" />
            <mxPoint x="480" y="260" as="targetPoint" />
          </mxGeometry>
        </mxCell>
        <mxCell id="uGvqFp98ZI5xQv3e657r-25" value="" style="endArrow=classic;startArrow=classic;html=1;rounded=0;entryX=0;entryY=0.5;entryDx=0;entryDy=0;exitX=1;exitY=0.5;exitDx=0;exitDy=0;" edge="1" parent="1" source="HtUldh4A4xEhkK6D9P3v-1" target="uGvqFp98ZI5xQv3e657r-13">
          <mxGeometry width="50" height="50" relative="1" as="geometry">
            <mxPoint x="430" y="310" as="sourcePoint" />
            <mxPoint x="480" y="260" as="targetPoint" />
          </mxGeometry>
        </mxCell>
        <mxCell id="uGvqFp98ZI5xQv3e657r-26" value="" style="endArrow=classic;html=1;rounded=0;entryX=0;entryY=0.25;entryDx=0;entryDy=0;exitX=0.75;exitY=0;exitDx=0;exitDy=0;" edge="1" parent="1" source="HtUldh4A4xEhkK6D9P3v-1" target="uGvqFp98ZI5xQv3e657r-9">
          <mxGeometry width="50" height="50" relative="1" as="geometry">
            <mxPoint x="430" y="310" as="sourcePoint" />
            <mxPoint x="480" y="260" as="targetPoint" />
            <Array as="points">
              <mxPoint x="290" y="105" />
            </Array>
          </mxGeometry>
        </mxCell>
        <mxCell id="uGvqFp98ZI5xQv3e657r-27" value="" style="endArrow=classic;html=1;rounded=0;entryX=0;entryY=0.75;entryDx=0;entryDy=0;exitX=0.709;exitY=0.984;exitDx=0;exitDy=0;exitPerimeter=0;" edge="1" parent="1" source="HtUldh4A4xEhkK6D9P3v-1" target="uGvqFp98ZI5xQv3e657r-10">
          <mxGeometry width="50" height="50" relative="1" as="geometry">
            <mxPoint x="430" y="310" as="sourcePoint" />
            <mxPoint x="480" y="260" as="targetPoint" />
            <Array as="points">
              <mxPoint x="285" y="275" />
            </Array>
          </mxGeometry>
        </mxCell>
      </root>
    </mxGraphModel>
  </diagram>
</mxfile>
